<?xml version="1.0" encoding="UTF-8"?>
<svg xmlns="http://www.w3.org/2000/svg" viewBox="0 0 1350 535" width="1350" height="535">
  <defs>
  <marker id="arr" markerWidth="9" markerHeight="7" refX="8.5" refY="3.5" orient="auto">
    <polygon points="0 0,9 3.5,0 7" fill="#94a3b8"/>
  </marker>
  <marker id="arr-dash" markerWidth="9" markerHeight="7" refX="8.5" refY="3.5" orient="auto">
    <polygon points="0 0,9 3.5,0 7" fill="#64748b"/>
  </marker>
</defs>
  <rect width="1350" height="535" fill="#0f172a"/>
  <text x="48" y="42" font-family="'Segoe UI',system-ui,sans-serif" font-size="20" font-weight="700" fill="#f1f5f9">webhook-service Architecture</text>
  <text x="48" y="62" font-family="'Segoe UI',system-ui,sans-serif" font-size="12" fill="#64748b">FastAPI · Celery · Redis · PostgreSQL · Keycloak · Prometheus</text>
  <rect x="28" y="72" width="1294" height="415" rx="12" fill="#1e293b" stroke="#334155" stroke-width="1"/>
  <rect x="25" y="209" width="130" height="72" rx="10" fill="#1e293b" stroke="#94a3b8" stroke-width="2.5"/><text x="90" y="236" text-anchor="middle" font-family="'Segoe UI',system-ui,sans-serif" font-size="14" font-weight="700" fill="#f1f5f9">클라이언트</text><text x="90" y="258" text-anchor="middle" font-family="'Segoe UI',system-ui,sans-serif" font-size="11" fill="#e2e8f0" opacity="0.9">Browser</text>
<rect x="255" y="209" width="130" height="72" rx="10" fill="#0c4a6e" stroke="#38bdf8" stroke-width="2.5"/><text x="320" y="236" text-anchor="middle" font-family="'Segoe UI',system-ui,sans-serif" font-size="14" font-weight="700" fill="#f1f5f9">Nginx</text><text x="320" y="258" text-anchor="middle" font-family="'Segoe UI',system-ui,sans-serif" font-size="11" fill="#bae6fd" opacity="0.9">:80 · rate limit</text>
<rect x="485" y="209" width="130" height="72" rx="10" fill="#1e3a8a" stroke="#60a5fa" stroke-width="2.5"/><text x="550" y="236" text-anchor="middle" font-family="'Segoe UI',system-ui,sans-serif" font-size="14" font-weight="700" fill="#f1f5f9">FastAPI</text><text x="550" y="258" text-anchor="middle" font-family="'Segoe UI',system-ui,sans-serif" font-size="11" fill="#bfdbfe" opacity="0.9">서명 검증 · 멀티테넌트</text>
<rect x="715" y="209" width="130" height="72" rx="10" fill="#7c2d12" stroke="#fb923c" stroke-width="2.5"/><text x="780" y="236" text-anchor="middle" font-family="'Segoe UI',system-ui,sans-serif" font-size="14" font-weight="700" fill="#f1f5f9">Redis Queue</text><text x="780" y="258" text-anchor="middle" font-family="'Segoe UI',system-ui,sans-serif" font-size="11" fill="#fed7aa" opacity="0.9">high / default 큐</text>
<rect x="945" y="209" width="130" height="72" rx="10" fill="#7c2d12" stroke="#fb923c" stroke-width="2.5"/><text x="1010" y="236" text-anchor="middle" font-family="'Segoe UI',system-ui,sans-serif" font-size="14" font-weight="700" fill="#f1f5f9">Celery Worker</text><text x="1010" y="258" text-anchor="middle" font-family="'Segoe UI',system-ui,sans-serif" font-size="11" fill="#fed7aa" opacity="0.9">지수 백오프 3회</text>
<rect x="1175" y="209" width="130" height="72" rx="10" fill="#065f46" stroke="#34d399" stroke-width="2.5"/><text x="1240" y="236" text-anchor="middle" font-family="'Segoe UI',system-ui,sans-serif" font-size="14" font-weight="700" fill="#f1f5f9">PostgreSQL</text><text x="1240" y="258" text-anchor="middle" font-family="'Segoe UI',system-ui,sans-serif" font-size="11" fill="#a7f3d0" opacity="0.9">웹훅 이벤트 영속화</text>
<rect x="485" y="64" width="130" height="72" rx="10" fill="#4a044e" stroke="#c084fc" stroke-width="2.5"/><text x="550" y="91" text-anchor="middle" font-family="'Segoe UI',system-ui,sans-serif" font-size="14" font-weight="700" fill="#f1f5f9">Keycloak</text><text x="550" y="113" text-anchor="middle" font-family="'Segoe UI',system-ui,sans-serif" font-size="11" fill="#e9d5ff" opacity="0.9">JWT · OIDC</text>
<rect x="1175" y="364" width="130" height="72" rx="10" fill="#7f1d1d" stroke="#f87171" stroke-width="2.5"/><text x="1240" y="391" text-anchor="middle" font-family="'Segoe UI',system-ui,sans-serif" font-size="14" font-weight="700" fill="#f1f5f9">Dead Letter</text><text x="1240" y="413" text-anchor="middle" font-family="'Segoe UI',system-ui,sans-serif" font-size="11" fill="#fecaca" opacity="0.9">Queue · 실패 3회</text>
<rect x="715" y="364" width="130" height="72" rx="10" fill="#312e81" stroke="#818cf8" stroke-width="2.5"/><text x="780" y="391" text-anchor="middle" font-family="'Segoe UI',system-ui,sans-serif" font-size="14" font-weight="700" fill="#f1f5f9">Prometheus</text><text x="780" y="413" text-anchor="middle" font-family="'Segoe UI',system-ui,sans-serif" font-size="11" fill="#c7d2fe" opacity="0.9">:9090 · metrics</text>
<rect x="945" y="364" width="130" height="72" rx="10" fill="#312e81" stroke="#818cf8" stroke-width="2.5"/><text x="1010" y="391" text-anchor="middle" font-family="'Segoe UI',system-ui,sans-serif" font-size="14" font-weight="700" fill="#f1f5f9">Grafana</text><text x="1010" y="413" text-anchor="middle" font-family="'Segoe UI',system-ui,sans-serif" font-size="11" fill="#c7d2fe" opacity="0.9">:3000 · dashboard</text><line x1="155" y1="245" x2="255" y2="245" stroke="#94a3b8" stroke-width="2"  marker-end="url(#arr)"/><rect x="178" y="225" width="54" height="17" rx="3" fill="#0f172a" opacity="0.92"/><text x="205" y="238" text-anchor="middle" font-family="'Segoe UI',system-ui,sans-serif" font-size="11" font-weight="600" fill="#e2e8f0">HTTPS</text>
<line x1="385" y1="245" x2="485" y2="245" stroke="#94a3b8" stroke-width="2"  marker-end="url(#arr)"/><rect x="414" y="225" width="42" height="17" rx="3" fill="#0f172a" opacity="0.92"/><text x="435" y="238" text-anchor="middle" font-family="'Segoe UI',system-ui,sans-serif" font-size="11" font-weight="600" fill="#e2e8f0">검증</text>
<line x1="615" y1="245" x2="715" y2="245" stroke="#94a3b8" stroke-width="2"  marker-end="url(#arr)"/><rect x="630" y="225" width="70" height="17" rx="3" fill="#0f172a" opacity="0.92"/><text x="665" y="238" text-anchor="middle" font-family="'Segoe UI',system-ui,sans-serif" font-size="11" font-weight="600" fill="#e2e8f0">enqueue</text>
<line x1="845" y1="245" x2="945" y2="245" stroke="#94a3b8" stroke-width="2"  marker-end="url(#arr)"/><rect x="874" y="225" width="42" height="17" rx="3" fill="#0f172a" opacity="0.92"/><text x="895" y="238" text-anchor="middle" font-family="'Segoe UI',system-ui,sans-serif" font-size="11" font-weight="600" fill="#e2e8f0">소비</text>
<line x1="1075" y1="245" x2="1175" y2="245" stroke="#94a3b8" stroke-width="2"  marker-end="url(#arr)"/><rect x="1097" y="225" width="56" height="17" rx="3" fill="#0f172a" opacity="0.92"/><text x="1125" y="238" text-anchor="middle" font-family="'Segoe UI',system-ui,sans-serif" font-size="11" font-weight="600" fill="#e2e8f0">영속화</text>
<line x1="550" y1="136" x2="550" y2="209" stroke="#64748b" stroke-width="1.5" stroke-dasharray="6 3" marker-end="url(#arr-dash)"/><rect x="547" y="152" width="46" height="17" rx="3" fill="#0f172a" opacity="0.92"/><text x="570" y="165" text-anchor="middle" font-family="'Segoe UI',system-ui,sans-serif" font-size="11" font-weight="600" fill="#e2e8f0">auth</text>
<line x1="550" y1="281" x2="780" y2="364" stroke="#94a3b8" stroke-width="2"  marker-end="url(#arr)"/><rect x="651" y="310" width="78" height="17" rx="3" fill="#0f172a" opacity="0.92"/><text x="690" y="323" text-anchor="middle" font-family="'Segoe UI',system-ui,sans-serif" font-size="11" font-weight="600" fill="#e2e8f0">/metrics</text>
<line x1="845" y1="400" x2="945" y2="400" stroke="#94a3b8" stroke-width="2"  marker-end="url(#arr)"/><rect x="867" y="380" width="56" height="17" rx="3" fill="#0f172a" opacity="0.92"/><text x="895" y="393" text-anchor="middle" font-family="'Segoe UI',system-ui,sans-serif" font-size="11" font-weight="600" fill="#e2e8f0">시각화</text>
<line x1="1010" y1="281" x2="1240" y2="364" stroke="#64748b" stroke-width="1.5" stroke-dasharray="6 3" marker-end="url(#arr-dash)"/><rect x="1134" y="320" width="42" height="17" rx="3" fill="#0f172a" opacity="0.92"/><text x="1155" y="333" text-anchor="middle" font-family="'Segoe UI',system-ui,sans-serif" font-size="11" font-weight="600" fill="#e2e8f0">실패</text>
<path d="M 615 265 C 895 325 1230 325 1175 265" fill="none" stroke="#64748b" stroke-width="1.5" stroke-dasharray="6 3" marker-end="url(#arr-dash)"/><rect x="850" y="315" width="90" height="17" rx="3" fill="#0f172a" opacity="0.92"/><text x="895" y="328" text-anchor="middle" font-family="'Segoe UI',system-ui,sans-serif" font-size="11" font-weight="600" fill="#e2e8f0">sync(직접)</text>
  <rect x="50" y="505" width="12" height="12" rx="3" fill="#60a5fa"/><text x="67" y="515" font-family="'Segoe UI',system-ui,sans-serif" font-size="11" fill="#94a3b8">API</text><rect x="250" y="505" width="12" height="12" rx="3" fill="#fb923c"/><text x="267" y="515" font-family="'Segoe UI',system-ui,sans-serif" font-size="11" fill="#94a3b8">Queue/Worker</text><rect x="450" y="505" width="12" height="12" rx="3" fill="#34d399"/><text x="467" y="515" font-family="'Segoe UI',system-ui,sans-serif" font-size="11" fill="#94a3b8">Database</text><rect x="650" y="505" width="12" height="12" rx="3" fill="#f87171"/><text x="667" y="515" font-family="'Segoe UI',system-ui,sans-serif" font-size="11" fill="#94a3b8">Dead Letter</text><rect x="850" y="505" width="12" height="12" rx="3" fill="#c084fc"/><text x="867" y="515" font-family="'Segoe UI',system-ui,sans-serif" font-size="11" fill="#94a3b8">Auth</text><rect x="1050" y="505" width="12" height="12" rx="3" fill="#818cf8"/><text x="1067" y="515" font-family="'Segoe UI',system-ui,sans-serif" font-size="11" fill="#94a3b8">Monitoring</text>
</svg>