<?xml version="1.0" encoding="UTF-8"?>
<svg xmlns="http://www.w3.org/2000/svg" viewBox="0 0 1560 580" width="1560" height="580">
  <defs>
  <marker id="arr" markerWidth="9" markerHeight="7" refX="8.5" refY="3.5" orient="auto">
    <polygon points="0 0,9 3.5,0 7" fill="#94a3b8"/>
  </marker>
  <marker id="arr-dash" markerWidth="9" markerHeight="7" refX="8.5" refY="3.5" orient="auto">
    <polygon points="0 0,9 3.5,0 7" fill="#64748b"/>
  </marker>
</defs>
  <rect width="1560" height="580" fill="#0f172a"/>
  <text x="48" y="42" font-family="'Segoe UI',system-ui,sans-serif" font-size="20" font-weight="700" fill="#f1f5f9">webhook-service Architecture</text>
  <text x="48" y="62" font-family="'Segoe UI',system-ui,sans-serif" font-size="12" fill="#64748b">FastAPI · Celery · Redis · PostgreSQL · Keycloak · Prometheus</text>
  <rect x="28" y="72" width="1504" height="455" rx="12" fill="#1e293b" stroke="#334155" stroke-width="1"/>
  <rect x="25" y="230" width="130" height="80" rx="10" fill="#1e293b" stroke="#94a3b8" stroke-width="2.5"/><text x="90" y="262" text-anchor="middle" font-family="'Segoe UI',system-ui,sans-serif" font-size="14" font-weight="700" fill="#f1f5f9">클라이언트</text><text x="90" y="284" text-anchor="middle" font-family="'Segoe UI',system-ui,sans-serif" font-size="11" fill="#e2e8f0" opacity="0.9">Browser</text>
<rect x="295" y="230" width="130" height="80" rx="10" fill="#0c4a6e" stroke="#38bdf8" stroke-width="2.5"/><text x="360" y="262" text-anchor="middle" font-family="'Segoe UI',system-ui,sans-serif" font-size="14" font-weight="700" fill="#f1f5f9">Nginx</text><text x="360" y="284" text-anchor="middle" font-family="'Segoe UI',system-ui,sans-serif" font-size="11" fill="#bae6fd" opacity="0.9">:80 · rate limit</text>
<rect x="565" y="230" width="130" height="80" rx="10" fill="#1e3a8a" stroke="#60a5fa" stroke-width="2.5"/><text x="630" y="262" text-anchor="middle" font-family="'Segoe UI',system-ui,sans-serif" font-size="14" font-weight="700" fill="#f1f5f9">FastAPI</text><text x="630" y="284" text-anchor="middle" font-family="'Segoe UI',system-ui,sans-serif" font-size="11" fill="#bfdbfe" opacity="0.9">서명 검증 · 멀티테넌트</text>
<rect x="835" y="230" width="130" height="80" rx="10" fill="#7c2d12" stroke="#fb923c" stroke-width="2.5"/><text x="900" y="262" text-anchor="middle" font-family="'Segoe UI',system-ui,sans-serif" font-size="14" font-weight="700" fill="#f1f5f9">Redis Queue</text><text x="900" y="284" text-anchor="middle" font-family="'Segoe UI',system-ui,sans-serif" font-size="11" fill="#fed7aa" opacity="0.9">high / default 큐</text>
<rect x="1105" y="230" width="130" height="80" rx="10" fill="#7c2d12" stroke="#fb923c" stroke-width="2.5"/><text x="1170" y="262" text-anchor="middle" font-family="'Segoe UI',system-ui,sans-serif" font-size="14" font-weight="700" fill="#f1f5f9">Celery Worker</text><text x="1170" y="284" text-anchor="middle" font-family="'Segoe UI',system-ui,sans-serif" font-size="11" fill="#fed7aa" opacity="0.9">지수 백오프 3회</text>
<rect x="1375" y="230" width="130" height="80" rx="10" fill="#065f46" stroke="#34d399" stroke-width="2.5"/><text x="1440" y="262" text-anchor="middle" font-family="'Segoe UI',system-ui,sans-serif" font-size="14" font-weight="700" fill="#f1f5f9">PostgreSQL</text><text x="1440" y="284" text-anchor="middle" font-family="'Segoe UI',system-ui,sans-serif" font-size="11" fill="#a7f3d0" opacity="0.9">웹훅 이벤트 영속화</text>
<rect x="565" y="75" width="130" height="80" rx="10" fill="#4a044e" stroke="#c084fc" stroke-width="2.5"/><text x="630" y="107" text-anchor="middle" font-family="'Segoe UI',system-ui,sans-serif" font-size="14" font-weight="700" fill="#f1f5f9">Keycloak</text><text x="630" y="129" text-anchor="middle" font-family="'Segoe UI',system-ui,sans-serif" font-size="11" fill="#e9d5ff" opacity="0.9">JWT · OIDC</text>
<rect x="1375" y="410" width="130" height="80" rx="10" fill="#7f1d1d" stroke="#f87171" stroke-width="2.5"/><text x="1440" y="442" text-anchor="middle" font-family="'Segoe UI',system-ui,sans-serif" font-size="14" font-weight="700" fill="#f1f5f9">Dead Letter</text><text x="1440" y="464" text-anchor="middle" font-family="'Segoe UI',system-ui,sans-serif" font-size="11" fill="#fecaca" opacity="0.9">Queue · 실패 3회</text>
<rect x="835" y="410" width="130" height="80" rx="10" fill="#312e81" stroke="#818cf8" stroke-width="2.5"/><text x="900" y="442" text-anchor="middle" font-family="'Segoe UI',system-ui,sans-serif" font-size="14" font-weight="700" fill="#f1f5f9">Prometheus</text><text x="900" y="464" text-anchor="middle" font-family="'Segoe UI',system-ui,sans-serif" font-size="11" fill="#c7d2fe" opacity="0.9">:9090 · metrics</text>
<rect x="1105" y="410" width="130" height="80" rx="10" fill="#312e81" stroke="#818cf8" stroke-width="2.5"/><text x="1170" y="442" text-anchor="middle" font-family="'Segoe UI',system-ui,sans-serif" font-size="14" font-weight="700" fill="#f1f5f9">Grafana</text><text x="1170" y="464" text-anchor="middle" font-family="'Segoe UI',system-ui,sans-serif" font-size="11" fill="#c7d2fe" opacity="0.9">:3000 · dashboard</text><line x1="155" y1="270" x2="295" y2="270" stroke="#94a3b8" stroke-width="2"  marker-end="url(#arr)"/><rect x="198" y="250" width="54" height="17" rx="3" fill="#0f172a" opacity="0.92"/><text x="225" y="263" text-anchor="middle" font-family="'Segoe UI',system-ui,sans-serif" font-size="11" font-weight="600" fill="#e2e8f0">HTTPS</text>
<line x1="425" y1="270" x2="565" y2="270" stroke="#94a3b8" stroke-width="2"  marker-end="url(#arr)"/><rect x="474" y="250" width="42" height="17" rx="3" fill="#0f172a" opacity="0.92"/><text x="495" y="263" text-anchor="middle" font-family="'Segoe UI',system-ui,sans-serif" font-size="11" font-weight="600" fill="#e2e8f0">검증</text>
<line x1="695" y1="270" x2="835" y2="270" stroke="#94a3b8" stroke-width="2"  marker-end="url(#arr)"/><rect x="730" y="250" width="70" height="17" rx="3" fill="#0f172a" opacity="0.92"/><text x="765" y="263" text-anchor="middle" font-family="'Segoe UI',system-ui,sans-serif" font-size="11" font-weight="600" fill="#e2e8f0">enqueue</text>
<line x1="965" y1="270" x2="1105" y2="270" stroke="#94a3b8" stroke-width="2"  marker-end="url(#arr)"/><rect x="1014" y="250" width="42" height="17" rx="3" fill="#0f172a" opacity="0.92"/><text x="1035" y="263" text-anchor="middle" font-family="'Segoe UI',system-ui,sans-serif" font-size="11" font-weight="600" fill="#e2e8f0">소비</text>
<line x1="1235" y1="270" x2="1375" y2="270" stroke="#94a3b8" stroke-width="2"  marker-end="url(#arr)"/><rect x="1277" y="250" width="56" height="17" rx="3" fill="#0f172a" opacity="0.92"/><text x="1305" y="263" text-anchor="middle" font-family="'Segoe UI',system-ui,sans-serif" font-size="11" font-weight="600" fill="#e2e8f0">영속화</text>
<line x1="630" y1="155" x2="630" y2="230" stroke="#64748b" stroke-width="1.5" stroke-dasharray="6 3" marker-end="url(#arr-dash)"/><rect x="627" y="172" width="46" height="17" rx="3" fill="#0f172a" opacity="0.92"/><text x="650" y="185" text-anchor="middle" font-family="'Segoe UI',system-ui,sans-serif" font-size="11" font-weight="600" fill="#e2e8f0">auth</text>
<line x1="630" y1="310" x2="900" y2="410" stroke="#94a3b8" stroke-width="2"  marker-end="url(#arr)"/><rect x="709" y="342" width="78" height="17" rx="3" fill="#0f172a" opacity="0.92"/><text x="748" y="355" text-anchor="middle" font-family="'Segoe UI',system-ui,sans-serif" font-size="11" font-weight="600" fill="#e2e8f0">/metrics</text>
<line x1="965" y1="450" x2="1105" y2="450" stroke="#94a3b8" stroke-width="2"  marker-end="url(#arr)"/><rect x="1007" y="430" width="56" height="17" rx="3" fill="#0f172a" opacity="0.92"/><text x="1035" y="443" text-anchor="middle" font-family="'Segoe UI',system-ui,sans-serif" font-size="11" font-weight="600" fill="#e2e8f0">시각화</text>
<line x1="1170" y1="310" x2="1440" y2="410" stroke="#64748b" stroke-width="1.5" stroke-dasharray="6 3" marker-end="url(#arr-dash)"/><rect x="1319" y="342" width="42" height="17" rx="3" fill="#0f172a" opacity="0.92"/><text x="1340" y="355" text-anchor="middle" font-family="'Segoe UI',system-ui,sans-serif" font-size="11" font-weight="600" fill="#e2e8f0">실패</text>
<path d="M 695 290 C 1035 360 1425 360 1375 290" fill="none" stroke="#64748b" stroke-width="1.5" stroke-dasharray="6 3" marker-end="url(#arr-dash)"/><rect x="990" y="342" width="90" height="17" rx="3" fill="#0f172a" opacity="0.92"/><text x="1035" y="355" text-anchor="middle" font-family="'Segoe UI',system-ui,sans-serif" font-size="11" font-weight="600" fill="#e2e8f0">sync(직접)</text>
  <rect x="50" y="548" width="12" height="12" rx="3" fill="#60a5fa"/><text x="67" y="558" font-family="'Segoe UI',system-ui,sans-serif" font-size="11" fill="#94a3b8">API</text><rect x="260" y="548" width="12" height="12" rx="3" fill="#fb923c"/><text x="277" y="558" font-family="'Segoe UI',system-ui,sans-serif" font-size="11" fill="#94a3b8">Queue/Worker</text><rect x="470" y="548" width="12" height="12" rx="3" fill="#34d399"/><text x="487" y="558" font-family="'Segoe UI',system-ui,sans-serif" font-size="11" fill="#94a3b8">Database</text><rect x="680" y="548" width="12" height="12" rx="3" fill="#f87171"/><text x="697" y="558" font-family="'Segoe UI',system-ui,sans-serif" font-size="11" fill="#94a3b8">Dead Letter</text><rect x="890" y="548" width="12" height="12" rx="3" fill="#c084fc"/><text x="907" y="558" font-family="'Segoe UI',system-ui,sans-serif" font-size="11" fill="#94a3b8">Auth</text><rect x="1100" y="548" width="12" height="12" rx="3" fill="#818cf8"/><text x="1117" y="558" font-family="'Segoe UI',system-ui,sans-serif" font-size="11" fill="#94a3b8">Monitoring</text>
</svg>